<?xml version="1.0" encoding="UTF-8" standalone="no"?>
<!-- Created with Inkscape (http://www.inkscape.org/) -->

<svg
   xmlns:dc="http://purl.org/dc/elements/1.1/"
   xmlns:cc="http://creativecommons.org/ns#"
   xmlns:rdf="http://www.w3.org/1999/02/22-rdf-syntax-ns#"
   xmlns:svg="http://www.w3.org/2000/svg"
   xmlns="http://www.w3.org/2000/svg"
   xmlns:xlink="http://www.w3.org/1999/xlink"
   xmlns:sodipodi="http://sodipodi.sourceforge.net/DTD/sodipodi-0.dtd"
   xmlns:inkscape="http://www.inkscape.org/namespaces/inkscape"
   width="540"
   height="270"
   viewBox="0 0 540.00001 270"
   id="svg2"
   version="1.1"
   inkscape:version="0.91 r13725"
   sodipodi:docname="harbour-torch.svg">
  <defs
     id="defs4">
    <linearGradient
       inkscape:collect="always"
       id="linearGradient4923">
      <stop
         style="stop-color:#000000;stop-opacity:1"
         offset="0"
         id="stop4925" />
      <stop
         style="stop-color:#2e3436;stop-opacity:1"
         offset="1"
         id="stop4927" />
    </linearGradient>
    <radialGradient
       inkscape:collect="always"
       xlink:href="#radialGradient4445"
       id="radialGradient4341"
       gradientUnits="userSpaceOnUse"
       gradientTransform="matrix(-1.103702,5.693324e-7,-5.8285121e-7,-1.1299094,670.13072,1251.8267)"
       cx="481.8537"
       cy="348.97711"
       r="44.790298"
       fx="481.8537"
       fy="348.97711" />
    <radialGradient
       id="radialGradient4445"
       cx="481.8537"
       cy="348.97711"
       r="44.790298"
       gradientTransform="matrix(0,0.953,-0.9513,0,374.8925,-416.2066)"
       gradientUnits="userSpaceOnUse">
      <stop
         offset="0"
         style="stop-color:#3465a4;stop-opacity:1"
         id="stop4447" />
      <stop
         offset="1"
         style="stop-color:#2e3436;stop-opacity:1"
         id="stop4449" />
    </radialGradient>
    <linearGradient
       gradientTransform="translate(95.396626,814.51388)"
       y2="57.661598"
       x2="57.9244"
       y1="27.843"
       x1="28.105801"
       gradientUnits="userSpaceOnUse"
       id="SVGID_2_"
       xlink:href="#SVGID_1_">
      <stop
         id="stop50"
         style="stop-color:#FFFFFF"
         offset="0" />
      <stop
         id="stop52"
         style="stop-color:#F3EDD1"
         offset="1" />
    </linearGradient>
    <radialGradient
       gradientUnits="userSpaceOnUse"
       gradientTransform="matrix(0,0.953,-0.9513,0,374.8925,-416.2066)"
       r="44.790298"
       cy="348.97711"
       cx="481.8537"
       id="SVGID_1_">
      <stop
         id="stop7"
         style="stop-color:#204a87;stop-opacity:1"
         offset="0" />
      <stop
         id="stop9"
         style="stop-color:#000000;stop-opacity:1"
         offset="1" />
    </radialGradient>
    <linearGradient
       inkscape:collect="always"
       xlink:href="#linearGradient4923"
       id="linearGradient4929"
       x1="530.61224"
       y1="1045.4033"
       x2="5.2191396"
       y2="789.66553"
       gradientUnits="userSpaceOnUse" />
  </defs>
  <sodipodi:namedview
     id="base"
     pagecolor="#ffffff"
     bordercolor="#666666"
     borderopacity="1.0"
     inkscape:pageopacity="0.0"
     inkscape:pageshadow="2"
     inkscape:zoom="1.3558932"
     inkscape:cx="221.34939"
     inkscape:cy="170.52642"
     inkscape:document-units="px"
     inkscape:current-layer="layer1"
     showgrid="false"
     units="px"
     inkscape:window-width="1912"
     inkscape:window-height="1049"
     inkscape:window-x="0"
     inkscape:window-y="0"
     inkscape:window-maximized="0" />
  <metadata
     id="metadata7">
    <rdf:RDF>
      <cc:Work
         rdf:about="">
        <dc:format>image/svg+xml</dc:format>
        <dc:type
           rdf:resource="http://purl.org/dc/dcmitype/StillImage" />
        <dc:title></dc:title>
      </cc:Work>
    </rdf:RDF>
  </metadata>
  <g
     inkscape:label="Calque 1"
     inkscape:groupmode="layer"
     id="layer1"
     transform="translate(0,-782.36216)">
    <rect
       style="opacity:1;fill:url(#linearGradient4929);fill-opacity:1;stroke:none;stroke-width:3.63800001;stroke-linecap:round;stroke-linejoin:miter;stroke-miterlimit:4;stroke-dasharray:none;stroke-dashoffset:0;stroke-opacity:1"
       id="rect4849"
       width="540"
       height="270"
       x="0"
       y="782.36218" />
    <g
       id="g4931">
      <g
         transform="matrix(1.3160873,0,0,1.3160873,-36.343425,-239.73457)"
         id="g4818">
        <path
           inkscape:connector-curvature="0"
           style="fill:url(#radialGradient4341);fill-opacity:1"
           id="path11"
           d="m 97.046626,900.12488 41.261004,0 c 23.574,0 42.683,-19.078 42.683,-42.611 l 0,-41.19 c 0,-0.784 -0.637,-1.42 -1.423,-1.42 l -41.26,0 c -23.574,0 -42.684004,19.078 -42.684004,42.611 l 0,41.19 c 0,0.784 0.638,1.42 1.423,1.42 z" />
        <g
           transform="translate(95.396626,814.51388)"
           id="g4319"
           style="opacity:0.2">
          <path
             inkscape:connector-curvature="0"
             id="path15"
             d="m 43.015625,12.400391 c -0.28175,0 -0.563844,0.213578 -0.777344,0.642578 l -4.648437,9.320312 a 21.056999,21.112 0 0 1 5.425781,-0.722656 21.056999,21.112 0 0 1 5.431641,0.738281 l -4.654297,-9.335937 c -0.2145,-0.429 -0.495594,-0.642578 -0.777344,-0.642578 z"
             style="fill:#f3f9e2" />
          <path
             inkscape:connector-curvature="0"
             id="path17"
             d="m 37.580078,63.123047 4.65625,9.339844 c 0.428,0.856 1.128641,0.856 1.556641,0 l 4.642578,-9.322266 a 21.056999,21.112 0 0 1 -5.419922,0.722656 21.056999,21.112 0 0 1 -5.435547,-0.740234 z"
             style="fill:#f3f9e2" />
          <path
             inkscape:connector-curvature="0"
             id="path19"
             d="m 63.351562,37.316406 a 21.056999,21.112 0 0 1 0.720704,5.435547 21.056999,21.112 0 0 1 -0.740235,5.447266 l 9.314453,-4.667969 c 0.854,-0.429 0.854,-1.130594 0,-1.558594 l -9.294922,-4.65625 z"
             style="fill:#f3f9e2" />
          <path
             inkscape:connector-curvature="0"
             id="path21"
             d="m 22.695312,37.306641 -9.310546,4.666015 c -0.855,0.428 -0.855,1.130594 0,1.558594 l 9.292968,4.658203 a 21.056999,21.112 0 0 1 -0.720703,-5.4375 21.056999,21.112 0 0 1 0.738281,-5.445312 z"
             style="fill:#f3f9e2" />
          <path
             inkscape:connector-curvature="0"
             id="path23"
             d="m 64.015625,21.111328 c -0.169047,-0.01786 -0.368953,0.008 -0.595703,0.08398 l -9.871094,3.298829 a 21.056999,21.112 0 0 1 7.673828,7.707031 l 3.294922,-9.904297 c 0.2265,-0.68175 0.0052,-1.131969 -0.501953,-1.185547 z"
             style="fill:#f3f9e2" />
          <path
             inkscape:connector-curvature="0"
             id="path25"
             d="m 24.806641,53.302734 -3.292969,9.910157 c -0.303,0.907 0.190656,1.403609 1.097656,1.099609 l 9.873047,-3.300781 a 21.056999,21.112 0 0 1 -7.677734,-7.708985 z"
             style="fill:#f3f9e2" />
          <path
             inkscape:connector-curvature="0"
             id="path27"
             d="m 61.226562,53.3125 a 21.056999,21.112 0 0 1 -7.6875,7.695312 l 9.878907,3.304688 c 0.907,0.302 1.398656,-0.193562 1.097656,-1.101562 L 61.226562,53.3125 Z"
             style="fill:#f3f9e2" />
          <path
             inkscape:connector-curvature="0"
             id="path29"
             d="m 22.015625,21.109375 c -0.507234,0.05447 -0.729203,0.503047 -0.501953,1.185547 l 3.289062,9.898437 a 21.056999,21.112 0 0 1 7.689454,-7.697265 l -9.88086,-3.304688 c -0.2265,-0.0755 -0.426625,-0.100187 -0.595703,-0.08203 z"
             style="fill:#f3f9e2" />
        </g>
        <g
           transform="translate(95.396626,814.51388)"
           id="g4329"
           style="opacity:0.1">
          <path
             inkscape:connector-curvature="0"
             id="path33"
             d="m 31.640625,14.666016 c -0.371836,0.0092 -0.640469,0.338046 -0.683594,0.935546 L 30.21875,26.003906 a 21.056999,21.112 0 0 1 10.042969,-4.15625 l -7.867188,-6.841797 c -0.271125,-0.2355 -0.530804,-0.345375 -0.753906,-0.339843 z"
             style="fill:#eeefec" />
          <path
             inkscape:connector-curvature="0"
             id="path35"
             d="M 55.808594,59.501953 A 21.056999,21.112 0 0 1 45.773438,63.65625 l 7.863281,6.841797 c 0.724,0.627 1.365547,0.359297 1.435547,-0.595703 l 0.736328,-10.400391 z"
             style="fill:#eeefec" />
          <path
             inkscape:connector-curvature="0"
             id="path37"
             d="m 59.71875,29.921875 a 21.056999,21.112 0 0 1 4.146484,10.068359 l 6.824219,-7.886718 c 0.625,-0.725 0.356344,-1.373454 -0.597656,-1.439454 L 59.71875,29.921875 Z"
             style="fill:#eeefec" />
          <path
             inkscape:connector-curvature="0"
             id="path39"
             d="m 22.164062,45.511719 -6.824218,7.888672 c -0.624,0.723 -0.356297,1.371453 0.595703,1.439453 l 10.375,0.742187 A 21.056999,21.112 0 0 1 22.164062,45.511719 Z"
             style="fill:#eeefec" />
          <path
             inkscape:connector-curvature="0"
             id="path41"
             d="m 54.390625,14.666016 c -0.222627,-0.0057 -0.482781,0.104343 -0.753906,0.339843 l -7.861328,6.839844 a 21.056999,21.112 0 0 1 10.033203,4.171875 L 55.072266,15.601562 c -0.04375,-0.596875 -0.310596,-0.926123 -0.681641,-0.935546 z"
             style="fill:#eeefec" />
          <path
             inkscape:connector-curvature="0"
             id="path43"
             d="m 30.220703,59.486328 0.740235,10.416016 c 0.066,0.955 0.71064,1.223703 1.43164,0.595703 l 7.867188,-6.837891 A 21.056999,21.112 0 0 1 30.220703,59.486328 Z"
             style="fill:#eeefec" />
          <path
             inkscape:connector-curvature="0"
             id="path45"
             d="M 63.867188,45.519531 A 21.056999,21.112 0 0 1 59.707031,55.580078 L 70.09375,54.841797 c 0.952,-0.068 1.220703,-0.715453 0.595703,-1.439453 l -6.822265,-7.882813 z"
             style="fill:#eeefec" />
          <path
             inkscape:connector-curvature="0"
             id="path47"
             d="M 26.324219,29.923828 15.9375,30.662109 c -0.953,0.066 -1.220703,0.7145 -0.595703,1.4375 l 6.820312,7.886719 a 21.056999,21.112 0 0 1 4.16211,-10.0625 z"
             style="fill:#eeefec" />
        </g>
        <ellipse
           style="opacity:0.5;fill:url(#SVGID_2_);fill-opacity:1"
           id="ellipse54"
           ry="21.112"
           rx="21.056999"
           cy="857.26593"
           cx="138.41162" />
        <path
           style="opacity:1;fill:#fff9c8;fill-opacity:1;fill-rule:evenodd;stroke:none;stroke-width:1px;stroke-linecap:butt;stroke-linejoin:miter;stroke-opacity:1"
           d="m 139.20534,848.95006 -1.82584,4.32296 c -0.48581,1.15025 -0.39686,1.16845 0.78138,1.16845 l 5.4853,0 c 1.43937,0 1.31732,0.005 0.35703,2.03324 l -1.74774,3.69086 3.13781,0 c 1.82692,0 1.82896,0.0155 0.0576,1.2625 l -6.41046,4.51287 c -2.29676,1.61689 -2.30691,1.59947 -3.23037,0 l -2.25151,-4.51287 c -0.54432,-1.26181 -0.55523,-1.2625 0.64731,-1.2625 l 2.98999,0 1.38221,-2.19363 c 0.6643,-1.05429 0.62648,-1.04579 -0.33244,-1.04579 l -6.09802,0 c -2.3636,0 -2.40587,0.008 -1.79311,-1.36139 l 2.95993,-6.61676 c 0.4795,-1.07189 0.46951,-1.07326 2.22875,-1.06636 l 2.84382,0.0112 c 1.16185,0.005 1.17228,-0.0112 0.81836,1.05727 z"
           id="path4377"
           inkscape:connector-curvature="0"
           sodipodi:nodetypes="csssscsssccscsssssssc" />
      </g>
      <flowRoot
         transform="matrix(1.5920097,0,0,1.5920097,-81.127801,772.85396)"
         style="font-style:normal;font-variant:normal;font-weight:normal;font-stretch:normal;font-size:56.53231812px;line-height:125%;font-family:'Linux Libertine O';-inkscape-font-specification:'Linux Libertine O';text-align:start;letter-spacing:0px;word-spacing:0px;writing-mode:lr-tb;text-anchor:start;fill:#98a8bb;fill-opacity:1;stroke:none;stroke-width:1px;stroke-linecap:butt;stroke-linejoin:miter;stroke-opacity:1"
         id="flowRoot4841"
         xml:space="preserve"><flowRegion
           id="flowRegion4843"><rect
             style="font-style:normal;font-variant:normal;font-weight:normal;font-stretch:normal;font-size:56.53231812px;font-family:'Linux Libertine O';-inkscape-font-specification:'Linux Libertine O';fill:#98a8bb;fill-opacity:1"
             y="36.878555"
             x="201.80663"
             height="169.62195"
             width="328.8056"
             id="rect4845" /></flowRegion><flowPara
           id="flowPara4847">Torch</flowPara></flowRoot>      <flowRoot
         transform="translate(72.884277,787.5813)"
         style="font-style:normal;font-variant:normal;font-weight:normal;font-stretch:normal;font-size:17.5px;line-height:125%;font-family:'Linux Libertine';-inkscape-font-specification:'Linux Libertine';text-align:start;letter-spacing:0px;word-spacing:0px;writing-mode:lr-tb;text-anchor:start;fill:#93a0a6;fill-opacity:1;stroke:none;stroke-width:1px;stroke-linecap:butt;stroke-linejoin:miter;stroke-opacity:1"
         id="flowRoot4851"
         xml:space="preserve"><flowRegion
           id="flowRegion4853"><rect
             style="font-size:17.5px;fill:#93a0a6;fill-opacity:1"
             y="172.57611"
             x="16.52726"
             height="115.69086"
             width="546.26965"
             id="rect4855" /></flowRegion><flowPara
           id="flowPara4857">Ever been alone with your Jolla phone in the dark?</flowPara><flowPara
           id="flowPara4859">Don't be scared anymore!</flowPara></flowRoot>    </g>
  </g>
</svg>
