<?xml version="1.0" encoding="UTF-8" standalone="no"?>
<!-- Generator: Adobe Illustrator 17.0.1, SVG Export Plug-In . SVG Version: 6.00 Build 0)  -->

<svg
   xmlns:dc="http://purl.org/dc/elements/1.1/"
   xmlns:cc="http://creativecommons.org/ns#"
   xmlns:rdf="http://www.w3.org/1999/02/22-rdf-syntax-ns#"
   xmlns:svg="http://www.w3.org/2000/svg"
   xmlns="http://www.w3.org/2000/svg"
   xmlns:xlink="http://www.w3.org/1999/xlink"
   xmlns:sodipodi="http://sodipodi.sourceforge.net/DTD/sodipodi-0.dtd"
   xmlns:inkscape="http://www.inkscape.org/namespaces/inkscape"
   version="1.1"
   x="0px"
   y="0px"
   width="86px"
   height="86px"
   viewBox="0 0 86 86"
   enable-background="new 0 0 86 86"
   xml:space="preserve"
   id="svg2"
   inkscape:version="0.91 r13725"
   sodipodi:docname="harbour-torch.svg"><metadata
     id="metadata62"><rdf:RDF><cc:Work
         rdf:about=""><dc:format>image/svg+xml</dc:format><dc:type
           rdf:resource="http://purl.org/dc/dcmitype/StillImage" /><dc:title></dc:title></cc:Work></rdf:RDF></metadata><defs
     id="defs60"><radialGradient
       id="radialGradient4445"
       cx="481.8537"
       cy="348.9771"
       r="44.7903"
       gradientTransform="matrix(0,0.953,-0.9513,0,374.8925,-416.2066)"
       gradientUnits="userSpaceOnUse"><stop
         offset="0"
         style="stop-color:#3465a4;stop-opacity:1"
         id="stop4447" /><stop
         offset="1"
         style="stop-color:#2e3436;stop-opacity:1"
         id="stop4449" /></radialGradient><radialGradient
       gradientUnits="userSpaceOnUse"
       gradientTransform="matrix(0,0.953,-0.9513,0,374.8925,-416.2066)"
       r="44.7903"
       cy="348.9771"
       cx="481.8537"
       id="SVGID_1_"><stop
         id="stop7"
         style="stop-color:#204a87;stop-opacity:1"
         offset="0" /><stop
         id="stop9"
         style="stop-color:#000000;stop-opacity:1"
         offset="1" /></radialGradient><linearGradient
       y2="57.661598"
       x2="57.9244"
       y1="27.843"
       x1="28.105801"
       gradientUnits="userSpaceOnUse"
       id="SVGID_2_"
       xlink:href="#SVGID_1_"><stop
         id="stop50"
         style="stop-color:#FFFFFF"
         offset="0" /><stop
         id="stop52"
         style="stop-color:#F3EDD1"
         offset="1" /></linearGradient><radialGradient
       inkscape:collect="always"
       xlink:href="#radialGradient4445"
       id="radialGradient4341"
       gradientUnits="userSpaceOnUse"
       gradientTransform="matrix(-1.103702,5.693324e-7,-5.8285121e-7,-1.1299094,574.73409,437.31282)"
       cx="481.8537"
       cy="348.97711"
       r="44.790298"
       fx="481.8537"
       fy="348.97711" /></defs><sodipodi:namedview
     pagecolor="#ffffff"
     bordercolor="#666666"
     borderopacity="1"
     objecttolerance="10"
     gridtolerance="10"
     guidetolerance="10"
     inkscape:pageopacity="0"
     inkscape:pageshadow="2"
     inkscape:window-width="1912"
     inkscape:window-height="1049"
     id="namedview58"
     showgrid="false"
     inkscape:zoom="4"
     inkscape:cx="103.03132"
     inkscape:cy="10.869159"
     inkscape:window-x="0"
     inkscape:window-y="0"
     inkscape:window-maximized="0"
     inkscape:current-layer="svg2"><inkscape:grid
       type="xygrid"
       id="grid3417" /></sodipodi:namedview><g
     id="Layer_2"
     display="none" /><path
     inkscape:connector-curvature="0"
     style="fill:url(#radialGradient4341);fill-opacity:1"
     id="path11"
     d="m 1.65,85.611 41.261,0 C 66.485,85.611 85.594,66.533 85.594,43 l 0,-41.19 c 0,-0.784 -0.637,-1.42 -1.423,-1.42 l -41.26,0 C 19.337,0.39 0.227,19.468 0.227,43.001 l 0,41.19 c 0,0.784 0.638,1.42 1.423,1.42 z" /><g
     id="g4319"
     style="opacity:0.2"><path
       id="path15"
       d="M 43.015625 12.400391 C 42.733875 12.400391 42.451781 12.613969 42.238281 13.042969 L 37.589844 22.363281 A 21.056999 21.112 0 0 1 43.015625 21.640625 A 21.056999 21.112 0 0 1 48.447266 22.378906 L 43.792969 13.042969 C 43.578469 12.613969 43.297375 12.400391 43.015625 12.400391 z "
       style="fill:#f3f9e2" /><path
       id="path17"
       d="M 37.580078 63.123047 L 42.236328 72.462891 C 42.664328 73.318891 43.364969 73.318891 43.792969 72.462891 L 48.435547 63.140625 A 21.056999 21.112 0 0 1 43.015625 63.863281 A 21.056999 21.112 0 0 1 37.580078 63.123047 z "
       style="fill:#f3f9e2" /><path
       id="path19"
       d="M 63.351562 37.316406 A 21.056999 21.112 0 0 1 64.072266 42.751953 A 21.056999 21.112 0 0 1 63.332031 48.199219 L 72.646484 43.53125 C 73.500484 43.10225 73.500484 42.400656 72.646484 41.972656 L 63.351562 37.316406 z "
       style="fill:#f3f9e2" /><path
       id="path21"
       d="M 22.695312 37.306641 L 13.384766 41.972656 C 12.529766 42.400656 12.529766 43.10325 13.384766 43.53125 L 22.677734 48.189453 A 21.056999 21.112 0 0 1 21.957031 42.751953 A 21.056999 21.112 0 0 1 22.695312 37.306641 z "
       style="fill:#f3f9e2" /><path
       id="path23"
       d="M 64.015625 21.111328 C 63.846578 21.093469 63.646672 21.119313 63.419922 21.195312 L 53.548828 24.494141 A 21.056999 21.112 0 0 1 61.222656 32.201172 L 64.517578 22.296875 C 64.744078 21.615125 64.522766 21.164906 64.015625 21.111328 z "
       style="fill:#f3f9e2" /><path
       id="path25"
       d="M 24.806641 53.302734 L 21.513672 63.212891 C 21.210672 64.119891 21.704328 64.6165 22.611328 64.3125 L 32.484375 61.011719 A 21.056999 21.112 0 0 1 24.806641 53.302734 z "
       style="fill:#f3f9e2" /><path
       id="path27"
       d="M 61.226562 53.3125 A 21.056999 21.112 0 0 1 53.539062 61.007812 L 63.417969 64.3125 C 64.324969 64.6145 64.816625 64.118938 64.515625 63.210938 L 61.226562 53.3125 z "
       style="fill:#f3f9e2" /><path
       id="path29"
       d="M 22.015625 21.109375 C 21.508391 21.163844 21.286422 21.612422 21.513672 22.294922 L 24.802734 32.193359 A 21.056999 21.112 0 0 1 32.492188 24.496094 L 22.611328 21.191406 C 22.384828 21.115906 22.184703 21.091219 22.015625 21.109375 z "
       style="fill:#f3f9e2" /></g><g
     id="g4329"
     style="opacity:0.1"><path
       id="path33"
       d="M 31.640625 14.666016 C 31.268789 14.675234 31.000156 15.004062 30.957031 15.601562 L 30.21875 26.003906 A 21.056999 21.112 0 0 1 40.261719 21.847656 L 32.394531 15.005859 C 32.123406 14.770359 31.863727 14.660484 31.640625 14.666016 z "
       style="fill:#eeefec" /><path
       id="path35"
       d="M 55.808594 59.501953 A 21.056999 21.112 0 0 1 45.773438 63.65625 L 53.636719 70.498047 C 54.360719 71.125047 55.002266 70.857344 55.072266 69.902344 L 55.808594 59.501953 z "
       style="fill:#eeefec" /><path
       id="path37"
       d="M 59.71875 29.921875 A 21.056999 21.112 0 0 1 63.865234 39.990234 L 70.689453 32.103516 C 71.314453 31.378516 71.045797 30.730062 70.091797 30.664062 L 59.71875 29.921875 z "
       style="fill:#eeefec" /><path
       id="path39"
       d="M 22.164062 45.511719 L 15.339844 53.400391 C 14.715844 54.123391 14.983547 54.771844 15.935547 54.839844 L 26.310547 55.582031 A 21.056999 21.112 0 0 1 22.164062 45.511719 z "
       style="fill:#eeefec" /><path
       id="path41"
       d="M 54.390625 14.666016 C 54.167998 14.660361 53.907844 14.770359 53.636719 15.005859 L 45.775391 21.845703 A 21.056999 21.112 0 0 1 55.808594 26.017578 L 55.072266 15.601562 C 55.028516 15.004687 54.76167 14.675439 54.390625 14.666016 z "
       style="fill:#eeefec" /><path
       id="path43"
       d="M 30.220703 59.486328 L 30.960938 69.902344 C 31.026937 70.857344 31.671578 71.126047 32.392578 70.498047 L 40.259766 63.660156 A 21.056999 21.112 0 0 1 30.220703 59.486328 z "
       style="fill:#eeefec" /><path
       id="path45"
       d="M 63.867188 45.519531 A 21.056999 21.112 0 0 1 59.707031 55.580078 L 70.09375 54.841797 C 71.04575 54.773797 71.314453 54.126344 70.689453 53.402344 L 63.867188 45.519531 z "
       style="fill:#eeefec" /><path
       id="path47"
       d="M 26.324219 29.923828 L 15.9375 30.662109 C 14.9845 30.728109 14.716797 31.376609 15.341797 32.099609 L 22.162109 39.986328 A 21.056999 21.112 0 0 1 26.324219 29.923828 z "
       style="fill:#eeefec" /></g><ellipse
     style="fill:url(#SVGID_2_);fill-opacity:1;opacity:0.5"
     id="ellipse54"
     ry="21.112"
     rx="21.056999"
     cy="42.751999"
     cx="43.014999" /><path
     style="opacity:1;fill:#fff9c8;fill-rule:evenodd;stroke:none;stroke-width:1px;stroke-linecap:butt;stroke-linejoin:miter;stroke-opacity:1;fill-opacity:1"
     d="m 43.808711,34.436176 -1.825835,4.322965 c -0.485816,1.150247 -0.396864,1.168446 0.781377,1.168446 l 5.485299,0 c 1.439371,0 1.317319,0.0053 0.357029,2.033239 l -1.747737,3.690865 3.137809,0 c 1.826923,0 1.82896,0.0155 0.0576,1.262496 l -6.410457,4.512875 c -2.296762,1.616889 -2.306914,1.599468 -3.230368,0 l -2.25151,-4.512875 c -0.54432,-1.261812 -0.555232,-1.262496 0.647306,-1.262496 l 2.989993,0 1.382202,-2.193635 c 0.664305,-1.054288 0.62648,-1.045782 -0.332435,-1.045782 l -6.098018,0 c -2.363606,0 -2.405873,0.0084 -1.793108,-1.361398 l 2.959928,-6.616756 c 0.479498,-1.071894 0.469503,-1.073256 2.228746,-1.06636 l 2.843817,0.01115 c 1.161858,0.0046 1.172289,-0.01122 0.818362,1.057268 z"
     id="path4377"
     inkscape:connector-curvature="0"
     sodipodi:nodetypes="csssscsssccscsssssssc" /></svg>